<svg width="56" height="56" viewBox="0 0 56 56" fill="none" xmlns="http://www.w3.org/2000/svg">
<circle cx="28" cy="28" r="28" fill="black"/>
<path d="M17.7338 32.44C19.8138 32.44 21.9737 32.44 24.0138 32.44C24.0538 34.28 25.2538 35.2 27.1738 35.2C29.1338 35.2 30.2138 33.72 30.2538 31.84C30.2138 27.8 26.2138 27.96 23.1738 28.08V27.12L26.8938 19.36H18.8138V13H36.6138V14.04L31.4538 23.48C35.8938 24.6 37.1738 28.2 37.1738 31.8C37.2137 36.56 33.8138 41.56 27.3338 41.56C25.2138 41.56 23.6938 41.12 22.3338 40.36C19.6938 38.88 17.7338 36.04 17.7338 32.44Z" fill="white"/>
</svg>
