<svg width="62" height="62" viewBox="0 0 62 62" fill="none" xmlns="http://www.w3.org/2000/svg">
<path d="M0 31C0 13.8792 13.8792 0 31 0C48.1208 0 62 13.8792 62 31C62 48.1208 48.1208 62 31 62C13.8792 62 0 48.1208 0 31Z" fill="white"/>
<path d="M30.9786 31.4977C35.5499 31.4977 39.2659 27.9103 39.2659 23.5C39.2659 19.0884 35.5499 15.5 30.9786 15.5C26.4083 15.5 22.6914 19.0884 22.6914 23.5C22.6914 27.9103 26.4083 31.4977 30.9786 31.4977Z" fill="#311B1B"/>
<path d="M34.3533 38.0271C36.0402 37.6562 37.6671 37.0119 39.1656 36.1034C40.2996 35.4132 40.6413 33.9663 39.9267 32.8716C39.2127 31.7746 37.7147 31.4443 36.5787 32.1345C33.1841 34.1951 28.8136 34.1946 25.421 32.1345C24.285 31.4443 22.7865 31.7746 22.0739 32.8716C21.3594 33.9673 21.7001 35.4132 22.8341 36.1034C24.3326 37.011 25.9595 37.6562 27.6464 38.0271L23.0131 42.4996C22.066 43.4147 22.066 44.8985 23.0141 45.8137C23.4886 46.2708 24.1094 46.4996 24.7302 46.4996C25.352 46.4996 25.9738 46.2708 26.4484 45.8137L30.9993 41.4188L35.5543 45.8137C36.5014 46.7288 38.038 46.7288 38.9861 45.8137C39.9352 44.8985 39.9352 43.4138 38.9861 42.4996L34.3533 38.0271Z" fill="#311B1B"/>
<path d="M30.4313 20C32.3235 20 33.8626 21.4852 33.8626 23.3117C33.8626 25.1368 32.3235 26.623 30.4313 26.623C28.5406 26.623 27 25.1368 27 23.3117C27 21.4852 28.5406 20 30.4313 20Z" fill="white"/>
</svg>
