<svg width="33" height="33" viewBox="0 0 33 33" fill="none" xmlns="http://www.w3.org/2000/svg">
<path d="M16.5 0C25.6127 0 33 7.3873 33 16.5C33 25.6127 25.6127 33 16.5 33C7.3873 33 0 25.6127 0 16.5C0 7.3873 7.3873 0 16.5 0ZM21.251 17.4961C20.8709 16.9123 20.0733 16.7362 19.4688 17.1035C17.662 18.2001 15.336 18.2 13.5303 17.1035C12.9257 16.7364 12.1283 16.9123 11.749 17.4961C11.3687 18.0792 11.5497 18.8494 12.1533 19.2168C12.9509 19.6998 13.817 20.0428 14.7148 20.2402L12.249 22.6211C11.745 23.1082 11.7445 23.8977 12.249 24.3848C12.5016 24.6281 12.8327 24.75 13.1631 24.75C13.4939 24.7499 13.8247 24.6279 14.0771 24.3848L16.5 22.0459L18.9238 24.3848C19.4279 24.8719 20.2464 24.8719 20.751 24.3848C21.2558 23.8978 21.2557 23.1077 20.751 22.6211L18.2852 20.2402C19.1827 20.0428 20.0484 19.7001 20.8457 19.2168C21.4493 18.8494 21.6313 18.0787 21.251 17.4961ZM16.4893 8.25C14.0568 8.25 12.0783 10.1598 12.0781 12.5078C12.0781 14.8552 14.0567 16.7646 16.4893 16.7646C18.9222 16.7644 20.8994 14.855 20.8994 12.5078C20.8993 10.1599 18.9221 8.25024 16.4893 8.25Z" fill="#00C066"/>
<path d="M16.4888 10.7454C17.496 10.7454 18.3152 11.5359 18.3152 12.5081C18.3152 13.4795 17.496 14.2705 16.4888 14.2705C15.4825 14.2705 14.6625 13.4795 14.6625 12.5081C14.6625 11.5359 15.4825 10.7454 16.4888 10.7454V10.7454Z" fill="#00C066"/>
</svg>
