<svg width="60" height="59" viewBox="0 0 60 59" fill="none" xmlns="http://www.w3.org/2000/svg">
<path d="M0 28.32C0 14.9698 0 8.29474 4.21766 4.14737C8.43532 0 15.2235 0 28.8 0H31.2C44.7765 0 51.5646 0 55.7824 4.14737C60 8.29474 60 14.9698 60 28.32V30.68C60 44.0302 60 50.7052 55.7824 54.8527C51.5646 59 44.7765 59 31.2 59H28.8C15.2235 59 8.43532 59 4.21766 54.8527C0 50.7052 0 44.0302 0 30.68V28.32Z" fill="white"/>
<path d="M31.8216 42.4802C17.8818 42.4802 9.9309 33.1784 9.59961 17.7002H16.5822C16.8116 29.0608 21.9593 33.8729 26.0367 34.8651V17.7002H32.6119V27.4981C36.6383 27.0764 40.8682 22.6115 42.2953 17.7002H48.8703C47.7745 23.7526 43.1874 28.2174 39.9254 30.053C43.1874 31.5413 48.4118 35.4356 50.3996 42.4802H43.1619C41.6073 37.7673 37.7342 34.121 32.6119 33.6249V42.4802H31.8216Z" fill="#311B1B"/>
</svg>
