<svg width="31" height="31" viewBox="0 0 31 31" fill="none" xmlns="http://www.w3.org/2000/svg">
<g clip-path="url(#clip0_1_426)">
<path d="M0 14.88C0 7.86548 0 4.35825 2.17913 2.17913C4.35825 0 7.86548 0 14.88 0H16.12C23.1345 0 26.6417 0 28.8209 2.17913C31 4.35825 31 7.86548 31 14.88V16.12C31 23.1345 31 26.6417 28.8209 28.8209C26.6417 31 23.1345 31 16.12 31H14.88C7.86548 31 4.35825 31 2.17913 28.8209C0 26.6417 0 23.1345 0 16.12V14.88Z" fill="#00C066"/>
<path d="M16.4413 22.32C9.2391 22.32 5.13113 17.4326 4.95996 9.3H8.56766C8.68616 15.2691 11.3458 17.7975 13.4525 18.3189V9.3H16.8496V14.448C18.93 14.2265 21.1154 11.8805 21.8527 9.3H25.2498C24.6837 12.4801 22.3136 14.826 20.6283 15.7905C22.3136 16.5724 25.013 18.6186 26.04 22.32H22.3005C21.4973 19.8437 19.4961 17.9279 16.8496 17.6672V22.32H16.4413Z" fill="white"/>
</g>
<defs>
<clipPath id="clip0_1_426">
<rect width="31" height="31" fill="white"/>
</clipPath>
</defs>
</svg>
